<svg width="150" height="150" viewBox="0 0 150 150" fill="none" xmlns="http://www.w3.org/2000/svg">
<mask id="path-1-outside-1_117_55" maskUnits="userSpaceOnUse" x="0" y="35" width="148" height="79" fill="black">
<rect fill="white" y="35" width="148" height="79"/>
<path d="M10 45.8182H21.6364V57.4545H10V45.8182ZM10 57.4545H21.6364V69.0909H10V57.4545ZM10 69.0909H21.6364V80.7273H10V69.0909ZM10 80.7273H21.6364V92.3636H10V80.7273ZM10 92.3636H21.6364V104H10V92.3636ZM21.6364 45.8182H33.2727V57.4545H21.6364V45.8182ZM33.2727 45.8182H44.9091V57.4545H33.2727V45.8182ZM33.2727 57.4545H44.9091V69.0909H33.2727V57.4545ZM33.2727 80.7273H44.9091V92.3636H33.2727V80.7273ZM33.2727 92.3636H44.9091V104H33.2727V92.3636ZM21.6364 92.3636H33.2727V104H21.6364V92.3636ZM21.6364 69.0909H33.2727V80.7273H21.6364V69.0909ZM56.5 45.8182H68.1364V57.4545H56.5V45.8182ZM68.1364 45.8182H79.7727V57.4545H68.1364V45.8182ZM79.7727 45.8182H91.4091V57.4545H79.7727V45.8182ZM79.7727 57.4545H91.4091V69.0909H79.7727V57.4545ZM79.7727 69.0909H91.4091V80.7273H79.7727V69.0909ZM79.7727 80.7273H91.4091V92.3636H79.7727V80.7273ZM79.7727 92.3636H91.4091V104H79.7727V92.3636ZM68.1364 92.3636H79.7727V104H68.1364V92.3636ZM56.5 92.3636H68.1364V104H56.5V92.3636ZM56.5 80.7273H68.1364V92.3636H56.5V80.7273ZM56.5 69.0909H68.1364V80.7273H56.5V69.0909ZM56.5 57.4545H68.1364V69.0909H56.5V57.4545ZM103 45.8182H114.636V57.4545H103V45.8182ZM103 57.4545H114.636V69.0909H103V57.4545ZM103 69.0909H114.636V80.7273H103V69.0909ZM103 80.7273H114.636V92.3636H103V80.7273ZM103 92.3636H114.636V104H103V92.3636ZM114.636 45.8182H126.273V57.4545H114.636V45.8182ZM126.273 45.8182H137.909V57.4545H126.273V45.8182ZM126.273 57.4545H137.909V69.0909H126.273V57.4545ZM126.273 80.7273H137.909V92.3636H126.273V80.7273ZM126.273 92.3636H137.909V104H126.273V92.3636ZM114.636 92.3636H126.273V104H114.636V92.3636ZM114.636 69.0909H126.273V80.7273H114.636V69.0909Z"/>
</mask>
<path d="M10 45.8182H21.6364V57.4545H10V45.8182ZM10 57.4545H21.6364V69.0909H10V57.4545ZM10 69.0909H21.6364V80.7273H10V69.0909ZM10 80.7273H21.6364V92.3636H10V80.7273ZM10 92.3636H21.6364V104H10V92.3636ZM21.6364 45.8182H33.2727V57.4545H21.6364V45.8182ZM33.2727 45.8182H44.9091V57.4545H33.2727V45.8182ZM33.2727 57.4545H44.9091V69.0909H33.2727V57.4545ZM33.2727 80.7273H44.9091V92.3636H33.2727V80.7273ZM33.2727 92.3636H44.9091V104H33.2727V92.3636ZM21.6364 92.3636H33.2727V104H21.6364V92.3636ZM21.6364 69.0909H33.2727V80.7273H21.6364V69.0909ZM56.5 45.8182H68.1364V57.4545H56.5V45.8182ZM68.1364 45.8182H79.7727V57.4545H68.1364V45.8182ZM79.7727 45.8182H91.4091V57.4545H79.7727V45.8182ZM79.7727 57.4545H91.4091V69.0909H79.7727V57.4545ZM79.7727 69.0909H91.4091V80.7273H79.7727V69.0909ZM79.7727 80.7273H91.4091V92.3636H79.7727V80.7273ZM79.7727 92.3636H91.4091V104H79.7727V92.3636ZM68.1364 92.3636H79.7727V104H68.1364V92.3636ZM56.5 92.3636H68.1364V104H56.5V92.3636ZM56.5 80.7273H68.1364V92.3636H56.5V80.7273ZM56.5 69.0909H68.1364V80.7273H56.5V69.0909ZM56.5 57.4545H68.1364V69.0909H56.5V57.4545ZM103 45.8182H114.636V57.4545H103V45.8182ZM103 57.4545H114.636V69.0909H103V57.4545ZM103 69.0909H114.636V80.7273H103V69.0909ZM103 80.7273H114.636V92.3636H103V80.7273ZM103 92.3636H114.636V104H103V92.3636ZM114.636 45.8182H126.273V57.4545H114.636V45.8182ZM126.273 45.8182H137.909V57.4545H126.273V45.8182ZM126.273 57.4545H137.909V69.0909H126.273V57.4545ZM126.273 80.7273H137.909V92.3636H126.273V80.7273ZM126.273 92.3636H137.909V104H126.273V92.3636ZM114.636 92.3636H126.273V104H114.636V92.3636ZM114.636 69.0909H126.273V80.7273H114.636V69.0909Z" fill="white"/>
<path d="M10 45.8182V35.8182H0V45.8182H10ZM21.6364 45.8182H31.6364V35.8182H21.6364V45.8182ZM21.6364 57.4545V67.4545H31.6364V57.4545H21.6364ZM10 57.4545H0V67.4545H10V57.4545ZM10 57.4545V47.4545H0V57.4545H10ZM21.6364 57.4545H31.6364V47.4545H21.6364V57.4545ZM21.6364 69.0909V79.0909H31.6364V69.0909H21.6364ZM10 69.0909H0V79.0909H10V69.0909ZM10 69.0909V59.0909H0V69.0909H10ZM21.6364 69.0909H31.6364V59.0909H21.6364V69.0909ZM21.6364 80.7273V90.7273H31.6364V80.7273H21.6364ZM10 80.7273H0V90.7273H10V80.7273ZM10 80.7273V70.7273H0V80.7273H10ZM21.6364 80.7273H31.6364V70.7273H21.6364V80.7273ZM21.6364 92.3636V102.364H31.6364V92.3636H21.6364ZM10 92.3636H0V102.364H10V92.3636ZM10 92.3636V82.3636H0V92.3636H10ZM21.6364 92.3636H31.6364V82.3636H21.6364V92.3636ZM21.6364 104V114H31.6364V104H21.6364ZM10 104H0V114H10V104ZM21.6364 45.8182V35.8182H11.6364V45.8182H21.6364ZM33.2727 45.8182H43.2727V35.8182H33.2727V45.8182ZM33.2727 57.4545V67.4545H43.2727V57.4545H33.2727ZM21.6364 57.4545H11.6364V67.4545H21.6364V57.4545ZM33.2727 45.8182V35.8182H23.2727V45.8182H33.2727ZM44.9091 45.8182H54.9091V35.8182H44.9091V45.8182ZM44.9091 57.4545V67.4545H54.9091V57.4545H44.9091ZM33.2727 57.4545H23.2727V67.4545H33.2727V57.4545ZM33.2727 57.4545V47.4545H23.2727V57.4545H33.2727ZM44.9091 57.4545H54.9091V47.4545H44.9091V57.4545ZM44.9091 69.0909V79.0909H54.9091V69.0909H44.9091ZM33.2727 69.0909H23.2727V79.0909H33.2727V69.0909ZM33.2727 80.7273V70.7273H23.2727V80.7273H33.2727ZM44.9091 80.7273H54.9091V70.7273H44.9091V80.7273ZM44.9091 92.3636V102.364H54.9091V92.3636H44.9091ZM33.2727 92.3636H23.2727V102.364H33.2727V92.3636ZM33.2727 92.3636V82.3636H23.2727V92.3636H33.2727ZM44.9091 92.3636H54.9091V82.3636H44.9091V92.3636ZM44.9091 104V114H54.9091V104H44.9091ZM33.2727 104H23.2727V114H33.2727V104ZM21.6364 92.3636V82.3636H11.6364V92.3636H21.6364ZM33.2727 92.3636H43.2727V82.3636H33.2727V92.3636ZM33.2727 104V114H43.2727V104H33.2727ZM21.6364 104H11.6364V114H21.6364V104ZM21.6364 69.0909V59.0909H11.6364V69.0909H21.6364ZM33.2727 69.0909H43.2727V59.0909H33.2727V69.0909ZM33.2727 80.7273V90.7273H43.2727V80.7273H33.2727ZM21.6364 80.7273H11.6364V90.7273H21.6364V80.7273ZM10 55.8182H21.6364V35.8182H10V55.8182ZM11.6364 45.8182V57.4545H31.6364V45.8182H11.6364ZM21.6364 47.4545H10V67.4545H21.6364V47.4545ZM20 57.4545V45.8182H0V57.4545H20ZM10 67.4545H21.6364V47.4545H10V67.4545ZM11.6364 57.4545V69.0909H31.6364V57.4545H11.6364ZM21.6364 59.0909H10V79.0909H21.6364V59.0909ZM20 69.0909V57.4545H0V69.0909H20ZM10 79.0909H21.6364V59.0909H10V79.0909ZM11.6364 69.0909V80.7273H31.6364V69.0909H11.6364ZM21.6364 70.7273H10V90.7273H21.6364V70.7273ZM20 80.7273V69.0909H0V80.7273H20ZM10 90.7273H21.6364V70.7273H10V90.7273ZM11.6364 80.7273V92.3636H31.6364V80.7273H11.6364ZM21.6364 82.3636H10V102.364H21.6364V82.3636ZM20 92.3636V80.7273H0V92.3636H20ZM10 102.364H21.6364V82.3636H10V102.364ZM11.6364 92.3636V104H31.6364V92.3636H11.6364ZM21.6364 94H10V114H21.6364V94ZM20 104V92.3636H0V104H20ZM21.6364 55.8182H33.2727V35.8182H21.6364V55.8182ZM23.2727 45.8182V57.4545H43.2727V45.8182H23.2727ZM33.2727 47.4545H21.6364V67.4545H33.2727V47.4545ZM31.6364 57.4545V45.8182H11.6364V57.4545H31.6364ZM33.2727 55.8182H44.9091V35.8182H33.2727V55.8182ZM34.9091 45.8182V57.4545H54.9091V45.8182H34.9091ZM44.9091 47.4545H33.2727V67.4545H44.9091V47.4545ZM43.2727 57.4545V45.8182H23.2727V57.4545H43.2727ZM33.2727 67.4545H44.9091V47.4545H33.2727V67.4545ZM34.9091 57.4545V69.0909H54.9091V57.4545H34.9091ZM44.9091 59.0909H33.2727V79.0909H44.9091V59.0909ZM43.2727 69.0909V57.4545H23.2727V69.0909H43.2727ZM33.2727 90.7273H44.9091V70.7273H33.2727V90.7273ZM34.9091 80.7273V92.3636H54.9091V80.7273H34.9091ZM44.9091 82.3636H33.2727V102.364H44.9091V82.3636ZM43.2727 92.3636V80.7273H23.2727V92.3636H43.2727ZM33.2727 102.364H44.9091V82.3636H33.2727V102.364ZM34.9091 92.3636V104H54.9091V92.3636H34.9091ZM44.9091 94H33.2727V114H44.9091V94ZM43.2727 104V92.3636H23.2727V104H43.2727ZM21.6364 102.364H33.2727V82.3636H21.6364V102.364ZM23.2727 92.3636V104H43.2727V92.3636H23.2727ZM33.2727 94H21.6364V114H33.2727V94ZM31.6364 104V92.3636H11.6364V104H31.6364ZM21.6364 79.0909H33.2727V59.0909H21.6364V79.0909ZM23.2727 69.0909V80.7273H43.2727V69.0909H23.2727ZM33.2727 70.7273H21.6364V90.7273H33.2727V70.7273ZM31.6364 80.7273V69.0909H11.6364V80.7273H31.6364ZM56.5 45.8182V35.8182H46.5V45.8182H56.5ZM68.1364 45.8182H78.1364V35.8182H68.1364V45.8182ZM68.1364 57.4545V67.4545H78.1364V57.4545H68.1364ZM56.5 57.4545H46.5V67.4545H56.5V57.4545ZM68.1364 45.8182V35.8182H58.1364V45.8182H68.1364ZM79.7727 45.8182H89.7727V35.8182H79.7727V45.8182ZM79.7727 57.4545V67.4545H89.7727V57.4545H79.7727ZM68.1364 57.4545H58.1364V67.4545H68.1364V57.4545ZM79.7727 45.8182V35.8182H69.7727V45.8182H79.7727ZM91.4091 45.8182H101.409V35.8182H91.4091V45.8182ZM91.4091 57.4545V67.4545H101.409V57.4545H91.4091ZM79.7727 57.4545H69.7727V67.4545H79.7727V57.4545ZM79.7727 57.4545V47.4545H69.7727V57.4545H79.7727ZM91.4091 57.4545H101.409V47.4545H91.4091V57.4545ZM91.4091 69.0909V79.0909H101.409V69.0909H91.4091ZM79.7727 69.0909H69.7727V79.0909H79.7727V69.0909ZM79.7727 69.0909V59.0909H69.7727V69.0909H79.7727ZM91.4091 69.0909H101.409V59.0909H91.4091V69.0909ZM91.4091 80.7273V90.7273H101.409V80.7273H91.4091ZM79.7727 80.7273H69.7727V90.7273H79.7727V80.7273ZM79.7727 80.7273V70.7273H69.7727V80.7273H79.7727ZM91.4091 80.7273H101.409V70.7273H91.4091V80.7273ZM91.4091 92.3636V102.364H101.409V92.3636H91.4091ZM79.7727 92.3636H69.7727V102.364H79.7727V92.3636ZM79.7727 92.3636V82.3636H69.7727V92.3636H79.7727ZM91.4091 92.3636H101.409V82.3636H91.4091V92.3636ZM91.4091 104V114H101.409V104H91.4091ZM79.7727 104H69.7727V114H79.7727V104ZM68.1364 92.3636V82.3636H58.1364V92.3636H68.1364ZM79.7727 92.3636H89.7727V82.3636H79.7727V92.3636ZM79.7727 104V114H89.7727V104H79.7727ZM68.1364 104H58.1364V114H68.1364V104ZM56.5 92.3636V82.3636H46.5V92.3636H56.5ZM68.1364 92.3636H78.1364V82.3636H68.1364V92.3636ZM68.1364 104V114H78.1364V104H68.1364ZM56.5 104H46.5V114H56.5V104ZM56.5 80.7273V70.7273H46.5V80.7273H56.5ZM68.1364 80.7273H78.1364V70.7273H68.1364V80.7273ZM68.1364 92.3636V102.364H78.1364V92.3636H68.1364ZM56.5 92.3636H46.5V102.364H56.5V92.3636ZM56.5 69.0909V59.0909H46.5V69.0909H56.5ZM68.1364 69.0909H78.1364V59.0909H68.1364V69.0909ZM68.1364 80.7273V90.7273H78.1364V80.7273H68.1364ZM56.5 80.7273H46.5V90.7273H56.5V80.7273ZM56.5 57.4545V47.4545H46.5V57.4545H56.5ZM68.1364 57.4545H78.1364V47.4545H68.1364V57.4545ZM68.1364 69.0909V79.0909H78.1364V69.0909H68.1364ZM56.5 69.0909H46.5V79.0909H56.5V69.0909ZM56.5 55.8182H68.1364V35.8182H56.5V55.8182ZM58.1364 45.8182V57.4545H78.1364V45.8182H58.1364ZM68.1364 47.4545H56.5V67.4545H68.1364V47.4545ZM66.5 57.4545V45.8182H46.5V57.4545H66.5ZM68.1364 55.8182H79.7727V35.8182H68.1364V55.8182ZM69.7727 45.8182V57.4545H89.7727V45.8182H69.7727ZM79.7727 47.4545H68.1364V67.4545H79.7727V47.4545ZM78.1364 57.4545V45.8182H58.1364V57.4545H78.1364ZM79.7727 55.8182H91.4091V35.8182H79.7727V55.8182ZM81.4091 45.8182V57.4545H101.409V45.8182H81.4091ZM91.4091 47.4545H79.7727V67.4545H91.4091V47.4545ZM89.7727 57.4545V45.8182H69.7727V57.4545H89.7727ZM79.7727 67.4545H91.4091V47.4545H79.7727V67.4545ZM81.4091 57.4545V69.0909H101.409V57.4545H81.4091ZM91.4091 59.0909H79.7727V79.0909H91.4091V59.0909ZM89.7727 69.0909V57.4545H69.7727V69.0909H89.7727ZM79.7727 79.0909H91.4091V59.0909H79.7727V79.0909ZM81.4091 69.0909V80.7273H101.409V69.0909H81.4091ZM91.4091 70.7273H79.7727V90.7273H91.4091V70.7273ZM89.7727 80.7273V69.0909H69.7727V80.7273H89.7727ZM79.7727 90.7273H91.4091V70.7273H79.7727V90.7273ZM81.4091 80.7273V92.3636H101.409V80.7273H81.4091ZM91.4091 82.3636H79.7727V102.364H91.4091V82.3636ZM89.7727 92.3636V80.7273H69.7727V92.3636H89.7727ZM79.7727 102.364H91.4091V82.3636H79.7727V102.364ZM81.4091 92.3636V104H101.409V92.3636H81.4091ZM91.4091 94H79.7727V114H91.4091V94ZM89.7727 104V92.3636H69.7727V104H89.7727ZM68.1364 102.364H79.7727V82.3636H68.1364V102.364ZM69.7727 92.3636V104H89.7727V92.3636H69.7727ZM79.7727 94H68.1364V114H79.7727V94ZM78.1364 104V92.3636H58.1364V104H78.1364ZM56.5 102.364H68.1364V82.3636H56.5V102.364ZM58.1364 92.3636V104H78.1364V92.3636H58.1364ZM68.1364 94H56.5V114H68.1364V94ZM66.5 104V92.3636H46.5V104H66.5ZM56.5 90.7273H68.1364V70.7273H56.5V90.7273ZM58.1364 80.7273V92.3636H78.1364V80.7273H58.1364ZM68.1364 82.3636H56.5V102.364H68.1364V82.3636ZM66.5 92.3636V80.7273H46.5V92.3636H66.5ZM56.5 79.0909H68.1364V59.0909H56.5V79.0909ZM58.1364 69.0909V80.7273H78.1364V69.0909H58.1364ZM68.1364 70.7273H56.5V90.7273H68.1364V70.7273ZM66.5 80.7273V69.0909H46.5V80.7273H66.5ZM56.5 67.4545H68.1364V47.4545H56.5V67.4545ZM58.1364 57.4545V69.0909H78.1364V57.4545H58.1364ZM68.1364 59.0909H56.5V79.0909H68.1364V59.0909ZM66.5 69.0909V57.4545H46.5V69.0909H66.5ZM103 45.8182V35.8182H93V45.8182H103ZM114.636 45.8182H124.636V35.8182H114.636V45.8182ZM114.636 57.4545V67.4545H124.636V57.4545H114.636ZM103 57.4545H93V67.4545H103V57.4545ZM103 57.4545V47.4545H93V57.4545H103ZM114.636 57.4545H124.636V47.4545H114.636V57.4545ZM114.636 69.0909V79.0909H124.636V69.0909H114.636ZM103 69.0909H93V79.0909H103V69.0909ZM103 69.0909V59.0909H93V69.0909H103ZM114.636 69.0909H124.636V59.0909H114.636V69.0909ZM114.636 80.7273V90.7273H124.636V80.7273H114.636ZM103 80.7273H93V90.7273H103V80.7273ZM103 80.7273V70.7273H93V80.7273H103ZM114.636 80.7273H124.636V70.7273H114.636V80.7273ZM114.636 92.3636V102.364H124.636V92.3636H114.636ZM103 92.3636H93V102.364H103V92.3636ZM103 92.3636V82.3636H93V92.3636H103ZM114.636 92.3636H124.636V82.3636H114.636V92.3636ZM114.636 104V114H124.636V104H114.636ZM103 104H93V114H103V104ZM114.636 45.8182V35.8182H104.636V45.8182H114.636ZM126.273 45.8182H136.273V35.8182H126.273V45.8182ZM126.273 57.4545V67.4545H136.273V57.4545H126.273ZM114.636 57.4545H104.636V67.4545H114.636V57.4545ZM126.273 45.8182V35.8182H116.273V45.8182H126.273ZM137.909 45.8182H147.909V35.8182H137.909V45.8182ZM137.909 57.4545V67.4545H147.909V57.4545H137.909ZM126.273 57.4545H116.273V67.4545H126.273V57.4545ZM126.273 57.4545V47.4545H116.273V57.4545H126.273ZM137.909 57.4545H147.909V47.4545H137.909V57.4545ZM137.909 69.0909V79.0909H147.909V69.0909H137.909ZM126.273 69.0909H116.273V79.0909H126.273V69.0909ZM126.273 80.7273V70.7273H116.273V80.7273H126.273ZM137.909 80.7273H147.909V70.7273H137.909V80.7273ZM137.909 92.3636V102.364H147.909V92.3636H137.909ZM126.273 92.3636H116.273V102.364H126.273V92.3636ZM126.273 92.3636V82.3636H116.273V92.3636H126.273ZM137.909 92.3636H147.909V82.3636H137.909V92.3636ZM137.909 104V114H147.909V104H137.909ZM126.273 104H116.273V114H126.273V104ZM114.636 92.3636V82.3636H104.636V92.3636H114.636ZM126.273 92.3636H136.273V82.3636H126.273V92.3636ZM126.273 104V114H136.273V104H126.273ZM114.636 104H104.636V114H114.636V104ZM114.636 69.0909V59.0909H104.636V69.0909H114.636ZM126.273 69.0909H136.273V59.0909H126.273V69.0909ZM126.273 80.7273V90.7273H136.273V80.7273H126.273ZM114.636 80.7273H104.636V90.7273H114.636V80.7273ZM103 55.8182H114.636V35.8182H103V55.8182ZM104.636 45.8182V57.4545H124.636V45.8182H104.636ZM114.636 47.4545H103V67.4545H114.636V47.4545ZM113 57.4545V45.8182H93V57.4545H113ZM103 67.4545H114.636V47.4545H103V67.4545ZM104.636 57.4545V69.0909H124.636V57.4545H104.636ZM114.636 59.0909H103V79.0909H114.636V59.0909ZM113 69.0909V57.4545H93V69.0909H113ZM103 79.0909H114.636V59.0909H103V79.0909ZM104.636 69.0909V80.7273H124.636V69.0909H104.636ZM114.636 70.7273H103V90.7273H114.636V70.7273ZM113 80.7273V69.0909H93V80.7273H113ZM103 90.7273H114.636V70.7273H103V90.7273ZM104.636 80.7273V92.3636H124.636V80.7273H104.636ZM114.636 82.3636H103V102.364H114.636V82.3636ZM113 92.3636V80.7273H93V92.3636H113ZM103 102.364H114.636V82.3636H103V102.364ZM104.636 92.3636V104H124.636V92.3636H104.636ZM114.636 94H103V114H114.636V94ZM113 104V92.3636H93V104H113ZM114.636 55.8182H126.273V35.8182H114.636V55.8182ZM116.273 45.8182V57.4545H136.273V45.8182H116.273ZM126.273 47.4545H114.636V67.4545H126.273V47.4545ZM124.636 57.4545V45.8182H104.636V57.4545H124.636ZM126.273 55.8182H137.909V35.8182H126.273V55.8182ZM127.909 45.8182V57.4545H147.909V45.8182H127.909ZM137.909 47.4545H126.273V67.4545H137.909V47.4545ZM136.273 57.4545V45.8182H116.273V57.4545H136.273ZM126.273 67.4545H137.909V47.4545H126.273V67.4545ZM127.909 57.4545V69.0909H147.909V57.4545H127.909ZM137.909 59.0909H126.273V79.0909H137.909V59.0909ZM136.273 69.0909V57.4545H116.273V69.0909H136.273ZM126.273 90.7273H137.909V70.7273H126.273V90.7273ZM127.909 80.7273V92.3636H147.909V80.7273H127.909ZM137.909 82.3636H126.273V102.364H137.909V82.3636ZM136.273 92.3636V80.7273H116.273V92.3636H136.273ZM126.273 102.364H137.909V82.3636H126.273V102.364ZM127.909 92.3636V104H147.909V92.3636H127.909ZM137.909 94H126.273V114H137.909V94ZM136.273 104V92.3636H116.273V104H136.273ZM114.636 102.364H126.273V82.3636H114.636V102.364ZM116.273 92.3636V104H136.273V92.3636H116.273ZM126.273 94H114.636V114H126.273V94ZM124.636 104V92.3636H104.636V104H124.636ZM114.636 79.0909H126.273V59.0909H114.636V79.0909ZM116.273 69.0909V80.7273H136.273V69.0909H116.273ZM126.273 70.7273H114.636V90.7273H126.273V70.7273ZM124.636 80.7273V69.0909H104.636V80.7273H124.636Z" fill="black" mask="url(#path-1-outside-1_117_55)"/>
</svg>
