<svg width="483" height="339" viewBox="0 0 483 339" fill="none" xmlns="http://www.w3.org/2000/svg">
<g clip-path="url(#clip0_24_114)">
<g clip-path="url(#clip1_24_114)">
<path d="M192.62 264.9C192.62 264.9 228.95 210.21 244.49 201.32C260.03 192.43 282.97 184.26 305.39 194.63C327.81 205 331.15 219.06 339.85 240.14C348.55 261.22 333.53 330.8 333.53 330.8H215.75L192.62 264.9Z" fill="#FF4D06"/>
<path d="M277.84 211.64C272.64 211.64 266.76 209.25 264.42 204.48C263.16 201.94 262.81 199.93 263.37 198.48C263.588 197.873 264.037 197.377 264.62 197.1L264.88 197.81L264.75 197.45L264.89 197.8C264.493 198.012 264.195 198.371 264.06 198.8C263.74 199.63 263.66 201.23 265.06 204.12C267.72 209.53 275.25 211.68 280.7 210.58C285.77 209.58 295.03 204.92 296.94 200.89C298.19 198.25 298.44 196.53 297.76 195.33C297.08 194.13 295.36 193.38 292.54 193.1L292.61 192.36C295.69 192.66 297.61 193.51 298.41 194.96C299.46 196.8 298.54 199.27 297.62 201.21C295.62 205.51 286.19 210.21 280.85 211.31C279.86 211.521 278.852 211.632 277.84 211.64Z" fill="#9CAAF2"/>
<path d="M335.31 284.14C335.31 284.14 298.4 273.6 285.02 278.28C271.64 282.96 244.19 282.28 239.02 270.92C233.85 259.56 242.21 236.12 242.21 236.12C234.09 256.37 233.01 271.43 235.51 282.61L236.92 328.8L332.2 330.66L318 291.75L335.31 284.14Z" fill="#C5410C"/>
<path d="M345 283.5C344.88 290.05 344.54 296.29 344.1 301.92C342.87 317.69 340.86 328.75 340.86 328.75L314.86 324.19L262.31 314.95C262.31 314.95 328.47 325.22 337.51 314.95C341.53 310.42 343.76 297.05 345 283.5Z" fill="#3750E2"/>
<g style="mix-blend-mode:multiply" opacity="0.65">
<path d="M244.55 291.71C266.37 292 303.75 294.01 303.75 294.01L301.17 222.8C301.22 223.61 301.28 224.45 301.37 225.31C303.37 245.89 308.9 299.6 308.9 299.6L244.55 291.71Z" fill="#3A4FCC"/>
</g>
<path d="M272.33 294.16L270.76 316.43L265.46 315.09L256.97 312.93L254.76 312.37L252.17 311.72L231.8 313.61L227.8 313.98C226.007 312.878 224.331 311.595 222.8 310.15C218.85 306.37 215.03 300.35 221.93 294.58C230.35 287.58 236.93 288.11 243.19 289.47C245.27 289.92 252.95 292.38 252.95 292.38L255.62 292.63L257.83 292.83L272.33 294.16Z" fill="#FDB2D0"/>
<path d="M265.46 315.09L252.17 311.72L231.8 313.61L235.73 308.35C235.73 308.35 250.49 310.54 253.55 306.84C253.55 306.84 256.03 309.54 262.35 308.99C266.77 308.61 266.2 312.63 265.46 315.09Z" fill="#F78DBE"/>
<path d="M256.79 305.65C256.305 308.06 256.367 310.547 256.97 312.93L254.76 312.37L255.63 292.63L257.84 292.83L257.52 296.18C264.62 302.18 256.79 305.65 256.79 305.65Z" fill="#F78DBE"/>
<path d="M345 283.5C344.89 290.05 344.54 296.29 344.1 301.92C343.72 306.83 343.26 311.29 342.81 315.09C341.81 323.5 340.86 328.75 340.86 328.75L329.18 326.7L314.9 324.19L260 314.54L261.75 292.54L308.9 299.54C308.9 299.54 303.38 245.83 301.37 225.25C299.36 204.67 308.9 196.64 308.9 196.64C339.88 205.49 345.62 248.8 345 283.5Z" fill="#FF4D06"/>
<path d="M342.81 315.09C341.81 323.5 340.86 328.75 340.86 328.75L329.18 326.7C333.94 324.8 339.67 321.4 342.81 315.09Z" fill="#364FE0"/>
<path d="M309.13 298.8C309.13 298.8 324.45 298.31 326.73 307.43C326.73 307.43 322.49 301.57 309.13 298.8Z" fill="#CC573A"/>
<path d="M306.27 299.8C306.27 299.8 321.51 301.49 322.47 310.8C322.47 310.88 319.11 304.48 306.27 299.8Z" fill="#CC573A"/>
<path d="M264.44 293.06L263.13 315.09L264.44 315.32L265.62 293.16L264.44 293.06Z" fill="#9CAAF2"/>
<path d="M267.7 293.47L266.38 315.66L267.69 315.89L268.88 293.65L267.7 293.47Z" fill="#9CAAF2"/>
<path d="M252.17 311.72C251.645 305.265 251.911 298.771 252.96 292.38L257.51 292.8C257.51 292.8 255.13 309.35 256.32 312.8L252.17 311.72Z" fill="#F9835A"/>
<path d="M252.56 311.15C252.56 311.15 251.67 300.92 253.19 293.06L257.19 293.42C257.19 293.42 254.76 309.14 255.79 312.11L252.56 311.15Z" fill="#FCAA24"/>
<path d="M254.42 305.65C257.69 305.65 260.34 303.47 260.34 300.78C260.34 298.09 257.69 295.91 254.42 295.91C251.15 295.91 248.5 298.09 248.5 300.78C248.5 303.47 251.15 305.65 254.42 305.65Z" fill="#F9835A"/>
<path d="M254.42 305.11C257.325 305.11 259.68 303.171 259.68 300.78C259.68 298.389 257.325 296.45 254.42 296.45C251.515 296.45 249.16 298.389 249.16 300.78C249.16 303.171 251.515 305.11 254.42 305.11Z" fill="#FCAA24"/>
<path d="M250.13 299.22C250.13 299.22 251.06 296.79 254.71 296.7C252.964 297.057 251.367 297.936 250.13 299.22Z" fill="#FFC46E"/>
<path d="M253.55 298.23V301.74L258.68 301.43H253.91L253.55 298.23Z" fill="#F9835A"/>
<path d="M254.823 306.969L252.99 306.811C252.836 306.798 252.7 306.912 252.687 307.066L252.67 307.255C252.657 307.409 252.771 307.545 252.925 307.558L254.758 307.717C254.912 307.73 255.048 307.616 255.061 307.462L255.078 307.272C255.091 307.118 254.977 306.983 254.823 306.969Z" fill="#F9835A"/>
<path d="M255.434 296.162L253.594 295.996C253.44 295.982 253.303 296.096 253.289 296.251L253.272 296.441C253.258 296.595 253.372 296.732 253.527 296.746L255.367 296.912C255.522 296.925 255.658 296.811 255.672 296.657L255.689 296.467C255.703 296.312 255.589 296.175 255.434 296.162Z" fill="#F9835A"/>
<path d="M255.912 294.893L254.079 294.735C253.925 294.722 253.789 294.836 253.776 294.99L253.76 295.18C253.746 295.334 253.861 295.469 254.015 295.483L255.848 295.64C256.002 295.654 256.138 295.539 256.151 295.385L256.167 295.196C256.18 295.042 256.066 294.906 255.912 294.893Z" fill="#F9835A"/>
<path d="M254.828 308.065L252.995 307.907C252.841 307.894 252.705 308.008 252.692 308.162L252.676 308.351C252.662 308.505 252.777 308.641 252.931 308.654L254.764 308.812C254.918 308.826 255.054 308.712 255.067 308.558L255.083 308.368C255.096 308.214 254.982 308.079 254.828 308.065Z" fill="#F9835A"/>
<path d="M254.823 309.181L252.99 309.023C252.836 309.01 252.7 309.124 252.687 309.278L252.67 309.467C252.657 309.621 252.771 309.757 252.925 309.77L254.758 309.928C254.913 309.942 255.048 309.828 255.061 309.674L255.078 309.484C255.091 309.33 254.977 309.195 254.823 309.181Z" fill="#F9835A"/>
<path d="M254.828 310.277L252.995 310.119C252.841 310.106 252.705 310.22 252.692 310.374L252.676 310.563C252.663 310.717 252.777 310.853 252.931 310.866L254.764 311.024C254.918 311.038 255.054 310.924 255.067 310.769L255.083 310.58C255.097 310.426 254.982 310.29 254.828 310.277Z" fill="#F9835A"/>
<path d="M289.62 178.08C289.62 178.08 316.39 154.49 299.33 125.21L283.95 152.06L289.62 178.08Z" fill="#1F107E"/>
<path d="M275.39 208.85C268.59 207.85 266.05 203.44 265.14 200.85C264.912 200.232 264.748 199.592 264.65 198.94L264.52 198.43L263.86 195.94L263.49 194.57L262.16 189.57L259.3 178.8L259.08 177.95L286.94 165.56C286.94 165.56 287.3 167.56 287.94 170.5C288.31 172.25 288.77 174.33 289.29 176.5C290.99 183.69 293.4 192.19 295.74 194.66L295.88 194.82C299.62 199.45 285.06 210.34 275.39 208.85Z" fill="#FDB2D0"/>
<path d="M288.75 174.31C286.1 183.07 274.29 197.68 269.62 197.49C267.293 197.307 265.112 196.279 263.49 194.6L262.16 189.6C267.02 184.8 282.62 169.98 287.92 170.48C288.29 172.23 288.22 172.1 288.75 174.31Z" fill="#EF8EC3"/>
<path d="M296.27 148.65C296.27 150.03 296.2 151.42 296.06 152.82C295.61 157.984 294.452 163.061 292.62 167.91C286.71 183.49 274.34 193.84 261 192.67C251.85 191.87 244.09 185.81 239.11 176.8C236.351 171.701 234.538 166.145 233.76 160.4C233.452 158.226 233.271 156.035 233.22 153.84C233.163 151.675 233.23 149.508 233.42 147.35C233.54 146.017 233.7 144.717 233.9 143.45C237.24 121.9 252.12 106.08 268.44 107.51C284.76 108.94 296.62 126.95 296.27 148.65Z" fill="#FDB2D0"/>
<path d="M296.27 148.65C296.27 150.03 296.2 151.42 296.06 152.82C295.61 157.984 294.452 163.061 292.62 167.91C262.15 146.57 268.22 125.21 268.22 125.21L296.27 148.65Z" fill="#F78DBE"/>
<path d="M267.54 122.14C267.54 122.14 259.84 147.35 247.72 152.59C243.137 154.478 238.083 154.9 233.25 153.8C233.193 151.638 233.259 149.474 233.45 147.32C233.57 146 233.72 144.69 233.93 143.41L267.54 122.14Z" fill="#F78DBE"/>
<path d="M272.42 116.01C272.42 116.01 254.02 148.47 231.62 151.8C209.22 155.13 220.24 124.36 236.62 113.66C253 102.96 276.77 95.6 272.42 116.01Z" fill="#1F107E"/>
<path d="M269.49 109.23C268.7 109.23 264.72 128.39 271.08 142.11C277.44 155.83 296.51 167.54 296.51 167.54C296.51 167.54 320.27 108.31 269.49 109.23Z" fill="#1F107E"/>
<path d="M268.93 115.88C268.93 115.88 257.17 80.49 284.84 83.14C326.37 87.14 335.1 121.9 290.32 130.86" fill="#1F107E"/>
<path d="M277.11 153.71C277.11 153.71 277.79 138 283.63 139.39C289.47 140.78 292.98 154.39 288.36 158.54C283.74 162.69 280.15 160.1 280.15 160.1L277.11 153.71Z" fill="#FDB2D0"/>
<path d="M267.74 103.23C276.233 102.542 284.655 105.23 291.18 110.71C302.28 119.96 301.29 127.79 301.29 127.79C301.29 127.79 297.05 108.28 267.74 103.23Z" fill="#FCAA24"/>
<path d="M280.62 145.12C280.62 145.12 282.06 141.33 283.97 142.12C285.88 142.91 289.97 148.83 288.55 152.83C287.13 156.83 284.74 156.4 284.74 156.4C284.74 156.4 288.89 153.18 287.44 149.21C285.99 145.24 283.44 142 280.62 145.12Z" fill="#F973AA"/>
<path d="M269.53 102.36C269.53 102.36 263.37 93.97 267.21 87.46C267.21 87.46 264.26 92.38 269.53 102.36Z" fill="#1F107E"/>
<path d="M315.36 122.8C315.36 122.8 306.48 128.12 301.91 122.41C301.91 122.42 305.35 126.8 315.36 122.8Z" fill="#1F107E"/>
<path d="M301.25 156.4C301.38 158.288 301.259 160.184 300.89 162.04C300.529 163.901 300 165.725 299.31 167.49C298.94 168.36 298.6 169.25 298.16 170.09C297.95 170.51 297.75 170.95 297.51 171.36L296.78 172.58C296.66 172.78 296.54 172.99 296.41 173.18L295.99 173.76C295.72 174.15 295.45 174.54 295.17 174.92C294.59 175.67 293.96 176.38 293.34 177.09C293.6 176.69 293.87 176.31 294.13 175.92C294.39 175.53 294.69 175.16 294.93 174.76L295.69 173.57L296.07 172.98L296.42 172.37L297.12 171.16C297.36 170.75 297.56 170.33 297.78 169.92C298.24 169.1 298.6 168.23 299 167.38C299.7 165.639 300.242 163.838 300.62 162C301.049 160.166 301.23 158.282 301.16 156.4H301.25Z" fill="#1F107E"/>
<path d="M302.83 156.18L302.4 156C307.29 144.39 305.46 135.94 303.07 130.89C301.589 127.683 299.388 124.86 296.64 122.64L296.91 122.26C299.714 124.524 301.961 127.401 303.48 130.67C305.92 135.8 307.79 144.39 302.83 156.18Z" fill="#1F107E"/>
<path d="M259.2 107.42C255.49 108.82 251.83 110.42 248.27 112.14C246.49 113.01 244.73 113.93 243.01 114.92C241.286 115.898 239.617 116.97 238.01 118.13C236.403 119.274 234.921 120.584 233.59 122.04C232.94 122.78 232.31 123.56 231.71 124.34C231.11 125.12 230.52 125.92 229.96 126.74C228.835 128.365 227.813 130.058 226.9 131.81C225.981 133.556 225.228 135.384 224.65 137.27C224.365 138.207 224.161 139.168 224.04 140.14C223.899 141.095 223.977 142.07 224.27 142.99C224.306 143.098 224.353 143.202 224.41 143.3C224.453 143.399 224.507 143.493 224.57 143.58C224.714 143.745 224.892 143.877 225.09 143.97C225.527 144.158 225.988 144.282 226.46 144.34C227.431 144.445 228.41 144.445 229.38 144.34C231.348 144.163 233.294 143.795 235.19 143.24C237.091 142.703 238.952 142.035 240.76 141.24C244.4 139.642 247.773 137.493 250.76 134.87C252.245 133.556 253.604 132.106 254.82 130.54C256.035 128.981 257.093 127.306 257.98 125.54C256.27 129.149 253.868 132.387 250.91 135.07C246.423 139.065 241.1 142.006 235.33 143.68C233.401 144.245 231.422 144.62 229.42 144.8C228.423 144.904 227.417 144.904 226.42 144.8C225.902 144.742 225.396 144.604 224.92 144.39C224.664 144.272 224.436 144.102 224.25 143.89C224.168 143.779 224.095 143.662 224.03 143.54C223.968 143.42 223.915 143.297 223.87 143.17C223.562 142.202 223.473 141.177 223.61 140.17C223.724 139.154 223.928 138.15 224.22 137.17C224.817 135.259 225.59 133.408 226.53 131.64C227.455 129.873 228.49 128.166 229.63 126.53C230.2 125.71 230.79 124.9 231.4 124.12C232.01 123.34 232.64 122.56 233.31 121.81C233.979 121.063 234.697 120.361 235.46 119.71C235.85 119.39 236.23 119.07 236.63 118.77L237.22 118.31L237.83 117.87C239.454 116.721 241.14 115.663 242.88 114.7C244.62 113.72 246.39 112.807 248.19 111.96C249.99 111.11 251.81 110.32 253.65 109.56C255.49 108.8 257.32 108.06 259.2 107.42Z" fill="#6F69C4"/>
<path d="M256.39 105.42C254.511 105.613 252.649 105.947 250.82 106.42C248.988 106.876 247.185 107.44 245.42 108.11C241.883 109.428 238.508 111.146 235.36 113.23C234.56 113.74 233.81 114.3 233.04 114.84C232.27 115.38 231.53 115.97 230.82 116.59C230.46 116.9 230.09 117.19 229.74 117.51L228.74 118.51C228.38 118.82 228.06 119.16 227.74 119.51L227.23 120C227.06 120.17 226.89 120.33 226.74 120.51C226.09 121.2 225.43 121.87 224.82 122.59C224.52 122.95 224.2 123.3 223.9 123.67L223.02 124.78L222.58 125.33C222.43 125.52 222.3 125.71 222.16 125.9L221.32 127.04L221.11 127.33L220.91 127.63L220.52 128.21L219.72 129.39C220.22 128.58 220.72 127.76 221.22 126.97L222.02 125.8C222.15 125.6 222.28 125.4 222.42 125.21L222.84 124.64L223.7 123.51C223.99 123.13 224.3 122.77 224.6 122.4C225.19 121.66 225.84 120.97 226.48 120.26C227.77 118.865 229.15 117.556 230.61 116.34C231.32 115.71 232.09 115.14 232.83 114.55C233.57 113.96 234.36 113.43 235.17 112.92C236.758 111.875 238.408 110.927 240.11 110.08C241.806 109.224 243.557 108.479 245.35 107.85C248.896 106.52 252.613 105.702 256.39 105.42Z" fill="#1F107E"/>
<path d="M267.61 175.59C272.371 175.59 276.23 171.731 276.23 166.97C276.23 162.209 272.371 158.35 267.61 158.35C262.849 158.35 258.99 162.209 258.99 166.97C258.99 171.731 262.849 175.59 267.61 175.59Z" fill="url(#paint0_radial_24_114)"/>
<path d="M245.24 168.55C245.24 170.397 244.647 172.195 243.549 173.68C242.451 175.165 240.906 176.259 239.14 176.8C236.381 171.701 234.568 166.145 233.79 160.4C234.701 160.09 235.657 159.932 236.62 159.93C237.752 159.93 238.873 160.153 239.919 160.586C240.965 161.019 241.915 161.654 242.715 162.455C243.516 163.255 244.151 164.205 244.584 165.251C245.017 166.297 245.24 167.418 245.24 168.55Z" fill="url(#paint1_radial_24_114)"/>
<path d="M246.17 159.66C245.444 159.047 244.637 158.539 243.77 158.15C242.951 157.783 242.055 157.625 241.16 157.69C240.264 157.78 239.403 158.085 238.65 158.58C237.851 159.1 237.104 159.696 236.42 160.36C236.89 159.477 237.532 158.698 238.31 158.07C239.099 157.41 240.067 157.003 241.09 156.9C242.119 156.825 243.146 157.069 244.03 157.6C244.902 158.101 245.637 158.808 246.17 159.66Z" fill="#F78DBE"/>
<path d="M262.35 157.43C261.622 156.819 260.81 156.314 259.94 155.93C259.124 155.554 258.226 155.392 257.33 155.46C256.433 155.554 255.572 155.862 254.82 156.36C254.02 156.874 253.276 157.471 252.6 158.14C253.063 157.256 253.703 156.476 254.48 155.85C255.266 155.186 256.236 154.778 257.26 154.68C258.288 154.595 259.317 154.837 260.2 155.37C261.068 155.879 261.804 156.585 262.35 157.43Z" fill="#F78DBE"/>
<path d="M250.32 162.39C249.84 163.71 249.4 165.03 249 166.39C248.81 167.06 248.62 167.73 248.46 168.39C248.302 169.049 248.181 169.717 248.1 170.39C248.002 171.053 248.002 171.727 248.1 172.39C248.123 172.713 248.227 173.025 248.402 173.297C248.576 173.57 248.816 173.794 249.1 173.95C249.719 174.194 250.401 174.226 251.04 174.04C251.724 173.89 252.394 173.68 253.04 173.41C252.435 173.766 251.79 174.051 251.12 174.26C250.776 174.368 250.42 174.435 250.06 174.46C249.684 174.484 249.308 174.422 248.96 174.28C248.602 174.125 248.303 173.859 248.11 173.52C247.915 173.198 247.783 172.841 247.72 172.47C247.62 171.757 247.62 171.033 247.72 170.32C247.911 168.923 248.247 167.549 248.72 166.22C249.166 164.909 249.701 163.629 250.32 162.39Z" fill="#F78DBE"/>
<path d="M262.19 174.59C262.19 174.59 259.37 182.96 253.35 181.95C251.681 181.736 250.105 181.061 248.798 180.001C247.491 178.941 246.505 177.539 245.95 175.95C245.95 175.95 246.41 176.14 247.22 176.38C249.83 177.15 256.01 178.38 261.54 175.02C261.76 174.87 261.98 174.74 262.19 174.59Z" fill="white"/>
<path d="M282.12 81.8C286.777 81.4155 291.466 81.7528 296.02 82.8C296.78 82.97 297.53 83.17 298.28 83.37C299.03 83.57 299.78 83.82 300.51 84.08C301.983 84.5918 303.423 85.1964 304.82 85.89C306.226 86.5645 307.58 87.3433 308.87 88.22C311.466 89.943 313.786 92.0504 315.75 94.47C314.706 93.327 313.586 92.2547 312.4 91.26L311.96 90.88L311.51 90.52L310.62 89.8C309.98 89.37 309.37 88.9 308.71 88.5C306.108 86.8366 303.314 85.4935 300.39 84.5C297.468 83.4794 294.454 82.7459 291.39 82.3099C289.86 82.0799 288.32 81.92 286.78 81.83C285.228 81.7346 283.673 81.7246 282.12 81.8Z" fill="#1F107E"/>
<path d="M275.39 208.85C268.59 207.85 266.05 203.44 265.14 200.85C266.93 202.85 271.57 207.38 276.9 207.53C283.74 207.72 291.46 201.84 291.46 201.84C291.46 201.84 295.38 197.84 295.86 194.84C299.62 199.45 285.06 210.34 275.39 208.85Z" fill="#EF8EC3"/>
<path d="M288.9 160.85C288.9 163.23 287.56 165.15 285.9 165.15C284.56 165.15 283.43 163.88 283.05 162.15C282.958 161.73 282.911 161.301 282.91 160.87C282.91 158.49 284.25 156.57 285.91 156.57C286.501 156.631 287.061 156.865 287.519 157.245C287.976 157.624 288.311 158.13 288.48 158.7C288.753 159.384 288.896 160.113 288.9 160.85Z" fill="#F9835A"/>
<path d="M288.62 159.96C288.62 162.34 287.28 164.27 285.62 164.27C285.026 164.211 284.463 163.975 284.003 163.594C283.544 163.213 283.208 162.703 283.04 162.13C282.948 161.71 282.901 161.281 282.9 160.85C282.9 158.47 284.24 156.55 285.9 156.55C286.491 156.611 287.051 156.845 287.509 157.225C287.966 157.604 288.301 158.11 288.47 158.68C288.562 159.101 288.612 159.529 288.62 159.96Z" fill="#FCAA24"/>
<path d="M95.85 295.98C95.8803 294.419 95.8302 292.856 95.7 291.3C95.58 289.76 95.41 288.21 95.19 286.67C94.7488 283.599 94.1108 280.559 93.28 277.57C92.451 274.58 91.4186 271.65 90.19 268.8C88.9649 265.95 87.5275 263.195 85.89 260.56C82.6184 255.28 78.5078 250.568 73.72 246.61C72.52 245.61 71.3 244.69 70.02 243.81C69.4 243.36 68.74 242.94 68.1 242.51C67.78 242.3 67.44 242.11 67.1 241.9C66.76 241.69 66.45 241.49 66.1 241.3C63.4321 239.736 60.6588 238.359 57.8 237.18C60.6464 238.389 63.4062 239.792 66.06 241.38C66.39 241.57 66.71 241.78 67.06 241.99C67.41 242.2 67.72 242.39 68.06 242.61C68.7 243.04 69.35 243.46 69.97 243.92C71.21 244.8 72.42 245.8 73.62 246.8C78.3548 250.783 82.4081 255.512 85.62 260.8C87.2219 263.434 88.6225 266.185 89.81 269.03C91.0094 271.871 92.0117 274.791 92.81 277.77C93.6011 280.729 94.2056 283.735 94.62 286.77C94.82 288.3 94.98 289.83 95.08 291.36C95.18 292.89 95.23 294.44 95.18 295.96C95.18 296.054 95.2165 296.144 95.2819 296.211C95.3472 296.278 95.4363 296.317 95.53 296.32C95.5763 296.323 95.6227 296.316 95.6663 296.3C95.7099 296.284 95.7497 296.26 95.7835 296.228C95.8172 296.196 95.844 296.158 95.8624 296.115C95.8807 296.072 95.8901 296.026 95.89 295.98H95.85Z" fill="#617893"/>
<path d="M94.62 285.12C94.62 285.12 81.73 273.29 79.13 281.8C77.07 288.55 94.62 285.12 94.62 285.12Z" fill="#0A42B1"/>
<path d="M94.62 285.18C94.62 285.18 99.08 268.28 105.85 274.03C111.21 278.61 94.62 285.18 94.62 285.18Z" fill="#8FB8F9"/>
<path d="M91.62 273.13C91.62 273.13 78.67 262.8 76.76 270.96C75.23 277.47 91.62 273.13 91.62 273.13Z" fill="#0A42B1"/>
<path d="M91.62 273.14C91.62 273.14 94.76 256.9 101.51 261.9C106.84 265.89 91.62 273.14 91.62 273.14Z" fill="#8FB8F9"/>
<path d="M86.82 262.47C86.82 262.47 72.13 254.86 71.82 263.27C71.62 269.96 86.82 262.47 86.82 262.47Z" fill="#0A42B1"/>
<path d="M86.82 262.44C86.82 262.44 86.69 245.89 94.3 249.44C100.36 252.31 86.82 262.44 86.82 262.44Z" fill="#8FB8F9"/>
<path d="M70.37 244.15C70.37 244.15 58.83 243.15 60.9 248.65C62.55 253.04 70.37 244.15 70.37 244.15Z" fill="#0A42B1"/>
<path d="M70.37 244.16C70.37 244.16 65.88 233.48 71.76 233.8C76.44 233.99 70.37 244.16 70.37 244.16Z" fill="#8FB8F9"/>
<path d="M78.52 251.21C78.52 251.21 65.52 247.21 66.52 254.04C67.39 259.47 78.52 251.21 78.52 251.21Z" fill="#0A42B1"/>
<path d="M78.46 251.26C78.46 251.26 75.93 237.93 82.62 239.7C87.9 241.11 78.46 251.26 78.46 251.26Z" fill="#8FB8F9"/>
<path d="M65.25 240.8C65.25 240.8 57.84 233.49 56.12 238.49C54.75 242.46 65.25 240.8 65.25 240.8Z" fill="#A2C7FC"/>
<path d="M113.06 292.5L106.9 325.33L106.52 327.33H81.38L74.84 292.53C74.7199 291.879 74.7443 291.21 74.9112 290.57C75.0782 289.929 75.3837 289.333 75.8062 288.824C76.2288 288.315 76.758 287.904 77.3565 287.622C77.955 287.34 78.6082 287.192 79.27 287.19H108.62C109.281 287.188 109.934 287.331 110.533 287.61C111.132 287.889 111.662 288.296 112.086 288.803C112.51 289.31 112.817 289.904 112.985 290.543C113.153 291.182 113.179 291.85 113.06 292.5Z" fill="#FCAA24"/>
<path d="M106.9 325.33L106.52 327.33H81.38L74.84 292.53C74.6548 291.527 74.8134 290.491 75.29 289.59C76.53 294.99 80.01 308.12 85.75 315.26C90.84 321.56 101.09 324.26 106.9 325.33Z" fill="#F9835A"/>
<path d="M94.97 288.56C94.97 288.56 109.17 287.95 110.32 288.56C111.47 289.17 111.91 291.47 111.91 291.47L110.23 298.89C110.23 298.89 111.46 291.65 110.67 290.42C109.88 289.19 94.97 288.56 94.97 288.56Z" fill="#F7C481"/>
<g style="mix-blend-mode:multiply" opacity="0.19">
<path opacity="0.6" d="M96.25 301.13C96.25 301.61 95.97 302 95.63 302C95.29 302 95.01 301.61 95.01 301.13C95.01 300.65 95.29 300.27 95.63 300.27C95.97 300.27 96.25 300.65 96.25 301.13Z" fill="#C69C6D"/>
<path opacity="0.6" d="M100.86 293.17C100.86 293.65 100.58 294.04 100.24 294.04C99.9 294.04 99.62 293.65 99.62 293.17C99.62 292.69 99.9 292.3 100.24 292.3C100.58 292.3 100.86 292.69 100.86 293.17Z" fill="#C69C6D"/>
<path opacity="0.6" d="M98.51 309.12C98.51 309.6 98.23 309.99 97.89 309.99C97.55 309.99 97.27 309.6 97.27 309.12C97.27 308.64 97.54 308.25 97.89 308.25C98.24 308.25 98.51 308.64 98.51 309.12Z" fill="#C69C6D"/>
<path opacity="0.6" d="M83.62 298.02C83.62 298.5 83.34 298.89 83 298.89C82.66 298.89 82.38 298.5 82.38 298.02C82.38 297.54 82.66 297.15 83 297.15C83.34 297.15 83.62 297.54 83.62 298.02Z" fill="#C69C6D"/>
<path opacity="0.6" d="M89.68 313.97C89.68 314.45 89.4 314.84 89.06 314.84C88.72 314.84 88.44 314.45 88.44 313.97C88.44 313.49 88.72 313.1 89.06 313.1C89.4 313.1 89.68 313.49 89.68 313.97Z" fill="#C69C6D"/>
<path opacity="0.6" d="M93.56 322.68C93.56 323.16 93.28 323.55 92.94 323.55C92.6 323.55 92.32 323.16 92.32 322.68C92.32 322.2 92.6 321.81 92.94 321.81C93.28 321.81 93.56 322.2 93.56 322.68Z" fill="#C69C6D"/>
<path opacity="0.6" d="M93.95 310.54C93.95 311.33 93.5 311.96 92.95 311.96C92.4 311.96 91.95 311.33 91.95 310.54C91.95 309.75 92.41 309.12 92.95 309.12C93.49 309.12 93.95 309.8 93.95 310.54Z" fill="#C69C6D"/>
<path opacity="0.6" d="M104.45 317.86C104.45 318.64 104 319.28 103.45 319.28C102.9 319.28 102.45 318.64 102.45 317.86C102.45 317.08 102.91 316.44 103.45 316.44C103.99 316.44 104.45 317.07 104.45 317.86Z" fill="#C69C6D"/>
<path opacity="0.6" d="M89.45 305.8C89.45 306.58 89 307.22 88.45 307.22C87.9 307.22 87.45 306.58 87.45 305.8C87.45 305.02 87.9 304.38 88.45 304.38C89 304.38 89.45 305.02 89.45 305.8Z" fill="#C69C6D"/>
<path opacity="0.6" d="M91.84 295.01C91.84 295.79 91.39 296.43 90.84 296.43C90.29 296.43 89.84 295.79 89.84 295.01C89.84 294.23 90.29 293.59 90.84 293.59C91.39 293.59 91.84 294.22 91.84 295.01Z" fill="#C69C6D"/>
<path opacity="0.6" d="M86.62 320.39C86.62 321.17 86.16 321.81 85.62 321.81C85.08 321.81 84.62 321.17 84.62 320.39C84.62 319.61 85.07 318.97 85.62 318.97C86.17 318.97 86.62 319.6 86.62 320.39Z" fill="#C69C6D"/>
<path opacity="0.6" d="M97.27 313.1C97.27 313.5 96.81 313.81 96.27 313.81C95.73 313.81 95.27 313.5 95.27 313.1C95.27 312.7 95.72 312.39 96.27 312.39C96.82 312.39 97.27 312.71 97.27 313.1Z" fill="#C69C6D"/>
<path opacity="0.6" d="M99.52 324.26C99.52 324.65 99.07 324.97 98.52 324.97C97.97 324.97 97.52 324.65 97.52 324.26C97.52 323.87 97.98 323.55 98.52 323.55C99.06 323.55 99.52 323.86 99.52 324.26Z" fill="#C69C6D"/>
<path opacity="0.6" d="M107.91 302.71C107.91 303.11 107.46 303.42 106.91 303.42C106.36 303.42 105.91 303.11 105.91 302.71C105.91 302.31 106.37 302 106.91 302C107.45 302 107.91 302.32 107.91 302.71Z" fill="#C69C6D"/>
</g>
<path d="M240.27 319.98H236.11V325.89H240.27" fill="#426BC6"/>
<path d="M236.12 325.9H131.72L122.19 241.9H226.62L236.12 325.9Z" fill="#6C90FE"/>
<path d="M272.28 319.98H240.27V325.89H272.28V319.98Z" fill="#5C84EA"/>
<path d="M226.58 241.91L231.1 240.57L240.13 324.39L236.11 325.89L226.58 241.91Z" fill="#5C84EA"/>
<path d="M122.18 241.91L127.37 240.57H231.1L226.58 241.91H122.18Z" fill="#AAC0F9"/>
<path d="M178.61 291.31C184.293 291.31 188.9 287.379 188.9 282.53C188.9 277.681 184.293 273.75 178.61 273.75C172.927 273.75 168.32 277.681 168.32 282.53C168.32 287.379 172.927 291.31 178.61 291.31Z" fill="#AFC4F9"/>
<path d="M221.19 325.9H131.72L122.19 241.9C122.5 243.8 135.99 321.65 221.19 325.9Z" fill="#5E8FDB"/>
<path d="M192 242.66H225.84L228.24 265.58L224.52 244.22L192 242.66Z" fill="#A0BDF9"/>
<path d="M299.639 18.5702L237.402 42.8607L251.272 78.3999L313.51 54.1094L299.639 18.5702Z" fill="#FF4D06"/>
<path d="M299.25 18.73L298.26 19.12L287.5 43.65L287.2 44.34L280.13 60.47L263.99 53.4L263.3 53.09L238.77 42.33L237.78 42.72L263 53.78L252.39 77.97L253.38 77.58L263.69 54.08L280.51 61.46L287.89 44.64L311.39 54.95L312.38 54.56L288.19 43.95L299.25 18.73Z" fill="#EBF0FC"/>
<path d="M183.44 167.8V158.91C183.44 153.545 181.309 148.399 177.515 144.605C173.721 140.811 168.575 138.68 163.21 138.68H96.99C91.6247 138.68 86.4791 140.811 82.6852 144.605C78.8914 148.399 76.76 153.545 76.76 158.91V167.8C76.76 170.457 77.2833 173.087 78.2999 175.542C79.3166 177.996 80.8067 180.226 82.6852 182.105C84.5638 183.983 86.7939 185.473 89.2483 186.49C91.7027 187.507 94.3334 188.03 96.99 188.03H144.62L177.97 197.97L172.48 185.8C175.785 184.097 178.557 181.516 180.49 178.341C182.424 175.165 183.445 171.518 183.44 167.8Z" fill="#FF4D06"/>
<path d="M167.07 154.2H92.46C91.7492 154.2 91.0676 153.918 90.565 153.415C90.0624 152.913 89.78 152.231 89.78 151.52C89.7747 151.165 89.8401 150.812 89.9724 150.482C90.1047 150.152 90.3013 149.852 90.5507 149.599C90.8001 149.346 91.0973 149.145 91.4251 149.008C91.7529 148.871 92.1047 148.8 92.46 148.8H167.07C167.781 148.8 168.462 149.082 168.965 149.585C169.468 150.088 169.75 150.769 169.75 151.48C169.755 151.835 169.69 152.188 169.558 152.518C169.425 152.848 169.229 153.148 168.979 153.401C168.73 153.654 168.433 153.855 168.105 153.992C167.777 154.129 167.425 154.2 167.07 154.2Z" fill="#EBF0FC"/>
<path d="M167.07 165.57H92.46C91.7509 165.57 91.0708 165.289 90.5685 164.789C90.0662 164.288 89.7827 163.609 89.78 162.9C89.78 162.189 90.0624 161.508 90.565 161.005C91.0676 160.502 91.7492 160.22 92.46 160.22H167.07C167.781 160.22 168.462 160.502 168.965 161.005C169.468 161.508 169.75 162.189 169.75 162.9C169.747 163.609 169.464 164.288 168.962 164.789C168.459 165.289 167.779 165.57 167.07 165.57Z" fill="#EBF0FC"/>
<path d="M138.83 171.59H91.92C90.7381 171.59 89.78 172.548 89.78 173.73V174.8C89.78 175.982 90.7381 176.94 91.92 176.94H138.83C140.012 176.94 140.97 175.982 140.97 174.8V173.73C140.97 172.548 140.012 171.59 138.83 171.59Z" fill="#EBF0FC"/>
<path d="M397.53 289.71V295.98C397.53 296.51 397.319 297.019 396.944 297.394C396.569 297.769 396.06 297.98 395.53 297.98H395.02C394.49 297.98 393.981 297.769 393.606 297.394C393.231 297.019 393.02 296.51 393.02 295.98V289.71C393.018 289.34 393.118 288.976 393.31 288.66C393.484 288.359 393.733 288.109 394.033 287.933C394.332 287.758 394.673 287.664 395.02 287.66H395.53C395.835 287.661 396.137 287.731 396.411 287.867C396.684 288.002 396.924 288.198 397.11 288.44C397.392 288.803 397.54 289.251 397.53 289.71Z" fill="#F79C8D"/>
<path d="M385.62 289.71V295.98C385.62 296.51 385.409 297.019 385.034 297.394C384.659 297.769 384.15 297.98 383.62 297.98H383.12C382.59 297.98 382.081 297.769 381.706 297.394C381.331 297.019 381.12 296.51 381.12 295.98V289.71C381.12 289.18 381.331 288.671 381.706 288.296C382.081 287.921 382.59 287.71 383.12 287.71H383.62C384.15 287.71 384.659 287.921 385.034 288.296C385.409 288.671 385.62 289.18 385.62 289.71Z" fill="#F79C8D"/>
<path d="M409.46 325.92H368.03C365.47 325.92 363.72 322.63 364.66 319.6L365.55 316.75L371.21 298.57C371.387 297.788 371.81 297.084 372.416 296.561C373.023 296.037 373.781 295.721 374.58 295.66H402.91C403.709 295.721 404.467 296.037 405.074 296.561C405.68 297.084 406.103 297.788 406.28 298.57L411.08 313.99L412.83 319.6C413.77 322.63 412.02 325.92 409.46 325.92Z" fill="#FCAA24"/>
<path d="M385.62 289.71V291.57H381.1V289.71C381.101 289.339 381.205 288.975 381.4 288.66L385.2 288.48C385.473 288.832 385.621 289.265 385.62 289.71Z" fill="#EF7352"/>
<path d="M397.53 289.71V291.57H393.02V289.71C393.018 289.34 393.118 288.976 393.31 288.66L397.11 288.48C397.383 288.832 397.531 289.265 397.53 289.71Z" fill="#EF7352"/>
<path d="M409.46 325.92H368.03C365.47 325.92 363.72 322.63 364.66 319.6L365.55 316.75C366.5 317.75 368.5 318.9 372.43 320.22C383.22 323.84 402.8 321.58 402.8 321.58C404.614 320.926 406.28 319.919 407.701 318.616C409.123 317.313 410.271 315.74 411.08 313.99L412.83 319.6C413.77 322.63 412.02 325.92 409.46 325.92Z" fill="#F9835A"/>
<path d="M418.96 296.94C418.961 297.323 418.887 297.702 418.741 298.055C418.595 298.409 418.381 298.73 418.111 299.001C417.84 299.271 417.519 299.485 417.165 299.631C416.811 299.777 416.432 299.851 416.05 299.85H409.84C409.176 299.846 408.533 299.618 408.016 299.202C407.498 298.786 407.137 298.207 406.99 297.56C406.45 295.18 404.99 291.68 401.27 290.8C401.07 290.752 400.865 290.729 400.66 290.73H376.94C376.735 290.729 376.53 290.752 376.33 290.8C372.59 291.68 371.15 295.18 370.61 297.56C370.463 298.207 370.102 298.786 369.584 299.202C369.067 299.618 368.424 299.846 367.76 299.85H361.55C360.778 299.85 360.038 299.543 359.492 298.998C358.947 298.452 358.64 297.712 358.64 296.94C358.58 294.188 359.127 291.457 360.24 288.94C362.33 284.61 368.3 283.48 369.54 283.29C369.686 283.275 369.834 283.275 369.98 283.29H407.62C407.766 283.275 407.914 283.275 408.06 283.29C409.31 283.48 415.27 284.61 417.36 288.94C418.473 291.457 419.02 294.188 418.96 296.94Z" fill="#FCAA24"/>
<path d="M415.62 299.85H409.89C409.226 299.846 408.583 299.618 408.066 299.202C407.548 298.786 407.187 298.207 407.04 297.56C406.5 295.18 405.04 291.68 401.32 290.8C401.12 290.752 400.915 290.729 400.71 290.73H376.94C376.735 290.729 376.53 290.752 376.33 290.8C372.59 291.68 371.15 295.18 370.61 297.56C370.463 298.207 370.102 298.786 369.584 299.202C369.067 299.618 368.424 299.846 367.76 299.85H363.62C363.95 299.85 369.86 299.1 370.09 294.47C370.32 289.84 377.56 289.03 384.48 289.32C391.4 289.61 400.65 288.32 403.21 289.32C405.77 290.32 407.56 292.99 408.12 295.66C408.68 298.33 413.25 299.57 415.12 299.61C415.41 299.62 415.53 299.7 415.62 299.85Z" fill="#F9835A"/>
<path d="M360.2 290.99C360.2 290.99 361.64 284.65 369.56 283.99C365.706 285.134 362.387 287.616 360.2 290.99Z" fill="#F9D298"/>
<path d="M370.67 303.08L371.99 298.46C372.134 297.851 372.492 297.314 372.998 296.947C373.505 296.58 374.127 296.407 374.75 296.46H380.81L374.99 297.46C374.99 297.46 372.99 298.12 372.59 299.08C372.19 300.04 370.67 303.08 370.67 303.08Z" fill="#F9D298"/>
<path d="M386.8 302.11H381C380.713 302.11 380.48 302.343 380.48 302.63V304.38C380.48 304.667 380.713 304.9 381 304.9H386.8C387.087 304.9 387.32 304.667 387.32 304.38V302.63C387.32 302.343 387.087 302.11 386.8 302.11Z" fill="#F9835A"/>
<path d="M397.51 302.11H391.71C391.423 302.11 391.19 302.343 391.19 302.63V304.38C391.19 304.667 391.423 304.9 391.71 304.9H397.51C397.797 304.9 398.03 304.667 398.03 304.38V302.63C398.03 302.343 397.797 302.11 397.51 302.11Z" fill="#F9835A"/>
<path d="M386.8 306.73H381C380.713 306.73 380.48 306.963 380.48 307.25V309C380.48 309.287 380.713 309.52 381 309.52H386.8C387.087 309.52 387.32 309.287 387.32 309V307.25C387.32 306.963 387.087 306.73 386.8 306.73Z" fill="#F9835A"/>
<path d="M397.51 306.73H391.71C391.423 306.73 391.19 306.963 391.19 307.25V309C391.19 309.287 391.423 309.52 391.71 309.52H397.51C397.797 309.52 398.03 309.287 398.03 309V307.25C398.03 306.963 397.797 306.73 397.51 306.73Z" fill="#F9835A"/>
<path d="M386.8 311.35H381C380.713 311.35 380.48 311.583 380.48 311.87V313.62C380.48 313.907 380.713 314.14 381 314.14H386.8C387.087 314.14 387.32 313.907 387.32 313.62V311.87C387.32 311.583 387.087 311.35 386.8 311.35Z" fill="#F9835A"/>
<path d="M397.51 311.35H391.71C391.423 311.35 391.19 311.583 391.19 311.87V313.62C391.19 313.907 391.423 314.14 391.71 314.14H397.51C397.797 314.14 398.03 313.907 398.03 313.62V311.87C398.03 311.583 397.797 311.35 397.51 311.35Z" fill="#F9835A"/>
<path d="M409.405 135.682C412.078 119.213 400.894 103.696 384.425 101.022C367.956 98.349 352.439 109.533 349.765 126.002C347.092 142.471 358.276 157.988 374.745 160.662C391.214 163.335 406.731 152.151 409.405 135.682Z" fill="#FF4D06"/>
<path d="M395.71 147.67C393.48 149.98 389.44 150.37 384.71 149.11C374.469 145.861 365.874 138.792 360.71 129.37C358.57 124.99 358.17 120.95 360.01 118.31C360.982 117.292 362.218 116.566 363.58 116.212C364.942 115.859 366.376 115.893 367.72 116.31C368.032 116.411 368.319 116.578 368.562 116.799C368.805 117.019 368.999 117.289 369.13 117.59C370.012 119.563 371.113 121.431 372.41 123.16C372.598 123.422 372.73 123.719 372.797 124.034C372.864 124.349 372.865 124.675 372.8 124.99C372.559 126.187 372.026 127.307 371.25 128.25C370.889 128.681 370.696 129.229 370.707 129.791C370.718 130.354 370.932 130.893 371.31 131.31C374.097 134.303 377.272 136.909 380.75 139.06C381.229 139.351 381.798 139.457 382.35 139.36C382.902 139.262 383.399 138.967 383.75 138.53C384.524 137.582 385.52 136.84 386.65 136.37C386.944 136.239 387.263 136.171 387.585 136.171C387.907 136.171 388.226 136.239 388.52 136.37C390.466 137.334 392.511 138.082 394.62 138.6C394.941 138.668 395.243 138.805 395.507 138.999C395.771 139.194 395.99 139.443 396.15 139.73C396.798 140.904 397.119 142.23 397.08 143.57C397.04 145.042 396.563 146.47 395.71 147.67Z" fill="#EBF0FC"/>
<path d="M390.67 131.53C390.61 131.481 390.56 131.42 390.524 131.352C390.488 131.283 390.466 131.207 390.46 131.13C390.306 129.549 389.842 128.015 389.095 126.613C388.348 125.212 387.331 123.972 386.105 122.963C384.878 121.955 383.465 121.198 381.945 120.736C380.426 120.274 378.831 120.115 377.25 120.27C377.102 120.273 376.958 120.22 376.847 120.122C376.736 120.024 376.666 119.888 376.651 119.74C376.635 119.593 376.676 119.445 376.765 119.326C376.854 119.208 376.984 119.127 377.13 119.1C378.835 118.938 380.556 119.101 382.2 119.58C384.731 120.331 386.98 121.822 388.659 123.86C390.337 125.898 391.368 128.392 391.62 131.02C391.634 131.175 391.586 131.329 391.487 131.449C391.388 131.569 391.245 131.645 391.09 131.66C390.939 131.667 390.791 131.621 390.67 131.53Z" fill="#EBF0FC"/>
<path d="M394.25 131.18C394.128 131.08 394.05 130.936 394.03 130.78C393.831 128.73 393.23 126.74 392.261 124.923C391.292 123.105 389.974 121.497 388.384 120.189C386.793 118.882 384.959 117.9 382.989 117.302C381.019 116.703 378.949 116.498 376.9 116.7C376.745 116.714 376.591 116.666 376.471 116.567C376.351 116.468 376.275 116.325 376.26 116.17C376.252 116.094 376.259 116.017 376.28 115.943C376.302 115.87 376.338 115.801 376.386 115.741C376.435 115.682 376.494 115.633 376.562 115.596C376.63 115.56 376.704 115.537 376.78 115.53C378.985 115.309 381.211 115.526 383.331 116.168C385.452 116.811 387.425 117.865 389.136 119.272C390.848 120.679 392.265 122.41 393.305 124.366C394.346 126.322 394.99 128.464 395.2 130.67C395.208 130.746 395.201 130.823 395.18 130.897C395.158 130.97 395.122 131.039 395.074 131.099C395.025 131.158 394.965 131.207 394.898 131.244C394.83 131.28 394.756 131.303 394.68 131.31C394.525 131.323 394.372 131.276 394.25 131.18Z" fill="#EBF0FC"/>
<path d="M397.54 130.86C397.424 130.756 397.35 130.614 397.33 130.46C396.839 125.454 394.383 120.847 390.501 117.649C386.619 114.451 381.627 112.923 376.62 113.4C376.472 113.403 376.328 113.35 376.217 113.252C376.106 113.154 376.036 113.018 376.021 112.87C376.005 112.723 376.046 112.575 376.135 112.456C376.224 112.338 376.354 112.257 376.5 112.23C381.818 111.717 387.123 113.336 391.248 116.732C395.373 120.128 397.981 125.022 398.5 130.34C398.514 130.496 398.466 130.652 398.367 130.773C398.268 130.894 398.126 130.972 397.97 130.99C397.816 130.999 397.663 130.953 397.54 130.86Z" fill="#EBF0FC"/>
<path d="M445.08 325.13H42.37C40.6855 325.13 39.32 326.496 39.32 328.18V335.08C39.32 336.764 40.6855 338.13 42.37 338.13H445.08C446.764 338.13 448.13 336.764 448.13 335.08V328.18C448.13 326.496 446.764 325.13 445.08 325.13Z" fill="#3C59E5"/>
</g>
</g>
<defs>
<radialGradient id="paint0_radial_24_114" cx="0" cy="0" r="1" gradientUnits="userSpaceOnUse" gradientTransform="translate(267.61 166.97) scale(8.62001 8.62)">
<stop stop-color="#F973B4"/>
<stop offset="1" stop-color="#FDB2D0"/>
</radialGradient>
<radialGradient id="paint1_radial_24_114" cx="0" cy="0" r="1" gradientUnits="userSpaceOnUse" gradientTransform="translate(239.52 168.37) scale(7.21)">
<stop stop-color="#F981BB"/>
<stop offset="1" stop-color="#FDB2D0"/>
</radialGradient>
<clipPath id="clip0_24_114">
<rect width="482.06" height="338.13" fill="white"/>
</clipPath>
<clipPath id="clip1_24_114">
<rect width="482.06" height="338.13" fill="white"/>
</clipPath>
</defs>
</svg>
