<svg width="128" height="59" viewBox="0 0 128 59" fill="none" xmlns="http://www.w3.org/2000/svg">
<path d="M0 0.81818H11.6364V12.4545H0V0.81818ZM0 12.4545H11.6364V24.0909H0V12.4545ZM0 24.0909H11.6364V35.7273H0V24.0909ZM0 35.7273H11.6364V47.3636H0V35.7273ZM0 47.3636H11.6364V59H0V47.3636ZM11.6364 0.81818H23.2727V12.4545H11.6364V0.81818ZM23.2727 0.81818H34.9091V12.4545H23.2727V0.81818ZM23.2727 12.4545H34.9091V24.0909H23.2727V12.4545ZM23.2727 35.7273H34.9091V47.3636H23.2727V35.7273ZM23.2727 47.3636H34.9091V59H23.2727V47.3636ZM11.6364 47.3636H23.2727V59H11.6364V47.3636ZM11.6364 24.0909H23.2727V35.7273H11.6364V24.0909ZM46.5 0.81818H58.1364V12.4545H46.5V0.81818ZM58.1364 0.81818H69.7727V12.4545H58.1364V0.81818ZM69.7727 0.81818H81.4091V12.4545H69.7727V0.81818ZM69.7727 12.4545H81.4091V24.0909H69.7727V12.4545ZM69.7727 24.0909H81.4091V35.7273H69.7727V24.0909ZM69.7727 35.7273H81.4091V47.3636H69.7727V35.7273ZM69.7727 47.3636H81.4091V59H69.7727V47.3636ZM58.1364 47.3636H69.7727V59H58.1364V47.3636ZM46.5 47.3636H58.1364V59H46.5V47.3636ZM46.5 35.7273H58.1364V47.3636H46.5V35.7273ZM46.5 24.0909H58.1364V35.7273H46.5V24.0909ZM46.5 12.4545H58.1364V24.0909H46.5V12.4545ZM93 0.81818H104.636V12.4545H93V0.81818ZM93 12.4545H104.636V24.0909H93V12.4545ZM93 24.0909H104.636V35.7273H93V24.0909ZM93 35.7273H104.636V47.3636H93V35.7273ZM93 47.3636H104.636V59H93V47.3636ZM104.636 0.81818H116.273V12.4545H104.636V0.81818ZM116.273 0.81818H127.909V12.4545H116.273V0.81818ZM116.273 12.4545H127.909V24.0909H116.273V12.4545ZM116.273 35.7273H127.909V47.3636H116.273V35.7273ZM116.273 47.3636H127.909V59H116.273V47.3636ZM104.636 47.3636H116.273V59H104.636V47.3636ZM104.636 24.0909H116.273V35.7273H104.636V24.0909Z" fill="white"/>
</svg>
